<?xml version="1.0" standalone="no"?>
<!DOCTYPE svg PUBLIC "-//W3C//DTD SVG 1.1//EN" "http://www.w3.org/Graphics/SVG/1.1/DTD/svg11.dtd" >
<svg xmlns="http://www.w3.org/2000/svg">
<metadata></metadata>
<defs>
<font id="bsthebrewregular" horiz-adv-x="1" >
<font-face units-per-em="1088" ascent="870" descent="-218" />
<missing-glyph horiz-adv-x="400" />
<glyph unicode="&#xd;" horiz-adv-x="400" />
<glyph unicode=" "  horiz-adv-x="400" />
<glyph unicode="&#x09;" horiz-adv-x="400" />
<glyph unicode="&#xa0;" horiz-adv-x="400" />
<glyph unicode="!" horiz-adv-x="269" d="M182 470q0 -34 -27.5 -84t-27.5 -81q0 -85 6.5 -255.5t6.5 -255.5q0 -26 -8 -54q-11 -38 -31 -38l-5 1v30q0 98 6 279q7 187 7 278q0 24 13.5 55.5t13.5 42.5q0 32 -34.5 39t-67.5 14q-35 15 -35 64q0 53 36 78q1 -11 9 -32q4 -6 41 -8q44 -3 64 -14q33 -16 33 -59z" />
<glyph unicode="&#x22;" d="M39 -101h186v-39h-68v-141h-39v141h-79v39z" />
<glyph unicode="#" horiz-adv-x="497" d="M138 -205q0 -26 -8 -54q-11 -39 -31 -39l-5 1v35l13 539q1 45 25 103q0 9 -10 27q-8 15 -41 20q-43 7 -53 12q-26 13 -26 50q0 24 9 51q11 31 27 43q1 -12 8 -32q4 -6 40.5 -9t54.5 -15q29 -19 29 -65q0 -27 -12 -54.5t-22 -52t-10 -72.5q0 -3 1 -73q30 75 78 130 q36 40 112 101q-30 16 -30 52q0 23 13 48t32 35q0 -21 2.5 -27.5t28.5 -13.5q31 -9 45 -19q23 -17 23 -49q0 -60 -46 -81q0 45 -42 45q-80 -65 -106 -92q-44 -47 -78 -117q-30 -63 -30 -81q9 -344 9 -346z" />
<glyph unicode="$" horiz-adv-x="467" d="M367 310q0 -82 14.5 -246.5t14.5 -246.5q0 -89 -52 -90l-8 11q0 35 5 618q-16 18 -59 18q-28 0 -83.5 -7.5t-83.5 -7.5q-106 0 -106 91q0 53 25 66l37 -22l14 -9q6 -4 6 -5h253q38 0 53 -9q20 -12 20 -47q0 -13 -25 -42.5t-25 -71.5z" />
<glyph unicode="%" horiz-adv-x="526" d="M405 -206q0 -28 -9 -56q-13 -36 -37 -36q-4 0 -9 1v35l16 697h-281q-43 0 -58 8q-25 12 -25 50q0 66 37 90q0 -24 9 -31.5t34 -7.5h314q20 0 34.5 -17t14.5 -37q0 -55 -59 -55zM223 209q28 0 28 -28t-28 -28q-29 0 -29 29q0 27 29 27zM223 332q28 0 28 -28t-28 -28 q-29 0 -29 29q0 27 29 27z" />
<glyph unicode="&#x26;" horiz-adv-x="526" d="M405 -206q0 -28 -9 -56q-13 -36 -37 -36q-4 0 -9 1v35l16 697h-281q-43 0 -58 8q-25 12 -25 50q0 66 37 90q0 -24 9 -31.5t34 -7.5h314q20 0 34.5 -17t14.5 -37q0 -55 -59 -55zM183 331q35 0 35 -35q0 -33 -33 -33q-37 0 -37 34t35 34z" />
<glyph unicode="'" d="M111 -99h166v-39h-58v-141h-39v141h-66z" />
<glyph unicode="(" d="M15 -260h-26v162h26v-162z" />
<glyph unicode=")" horiz-adv-x="0" d="M23 -260h-28v162h28v-162z" />
<glyph unicode="*" d="M88 -263h-28v162h28v-162z" />
<glyph unicode="+" horiz-adv-x="0" d="M71 -257l-25 -14l-68 119l-70 -116l-26 9l95 162z" />
<glyph unicode="," d="M263 -156q-29 0 -29 29q0 27 29 27t29 -28t-29 -28zM121 -156q-30 0 -30 29q0 27 30 27q28 0 28 -28t-28 -28zM191 -277q-28 0 -28 28q0 27 28 27q29 0 29 -28q0 -27 -29 -27z" />
<glyph unicode="-" horiz-adv-x="297" d="M237 407h-226v73h226v-73z" />
<glyph unicode="." d="M198 -158q-29 0 -29 29q0 27 29 27q28 0 28 -29q0 -27 -28 -27zM198 -280q-29 0 -29 29q0 27 29 27q28 0 28 -28t-28 -28z" />
<glyph unicode="/" d="M308 -158q-28 0 -28 29q0 27 28 27t28 -29q0 -27 -28 -27zM214 -158q-28 0 -28 29q0 27 28 27q29 0 29 -29q0 -27 -29 -27zM308 -280q-28 0 -28 29q0 27 28 27t28 -28t-28 -28zM112 -158q-29 0 -29 29q0 27 29 27q28 0 28 -29q0 -27 -28 -27zM163 -280q-29 0 -29 29 q0 27 29 27q28 0 28 -28t-28 -28z" />
<glyph unicode="0" horiz-adv-x="415" d="M205 553q98 0 146 -101q36 -76 36 -187q0 -109 -36 -182q-48 -95 -146 -95q-100 0 -148 94q-37 73 -37 183q0 113 36 188q48 100 149 100zM103 265q0 -256 103 -256q101 0 101 256q0 267 -101 267q-103 0 -103 -267z" />
<glyph unicode="1" horiz-adv-x="415" d="M326 16v-16h-232v16q79 0 79 53v362q0 42 -26 42q-19 0 -58 -13v12l151 76h7v-482q0 -50 79 -50z" />
<glyph unicode="2" horiz-adv-x="415" d="M18 10q120 117 162 167q96 118 96 198q0 47 -28 81.5t-73 34.5q-55 0 -84 -26q-1 -1 -53 -69l-20 9q67 143 175 143q62 0 104 -35q46 -38 46 -98q0 -89 -83 -195q-27 -34 -150 -159h174q43 0 59 14q2 1 36 48l11 -9l-39 -114h-333v10z" />
<glyph unicode="3" horiz-adv-x="415" d="M258 418q0 36 -22.5 60.5t-58.5 24.5q-45 0 -76 -26q-19 -16 -51 -65l-12 9q31 67 62 93q39 34 105 34q50 0 83.5 -27t33.5 -76q0 -63 -71 -122q54 -28 75 -58q24 -34 24 -93q0 -87 -63 -136q-58 -45 -148 -45q-104 0 -104 42q0 31 35 31q14 0 54 -24t60 -24q52 0 81 37 q27 33 27 86q0 136 -171 136v9q54 5 95.5 43t41.5 91z" />
<glyph unicode="4" horiz-adv-x="415" d="M271 548h35v-365h75v-52h-75v-131h-69v131h-222v52zM46 183h191v264z" />
<glyph unicode="5" horiz-adv-x="415" d="M51 332l88 209h163q31 0 44 19l9 -6l-39 -77h-169l-34 -73q122 -19 173 -61q62 -52 62 -168q0 -83 -64 -135q-60 -50 -145 -50q-112 0 -112 51q0 31 35 31q24 0 59.5 -28t62.5 -28q49 0 77 48q25 40 25 92q0 102 -109 152q-30 14 -126 24z" />
<glyph unicode="6" horiz-adv-x="415" d="M122 312q46 39 109 39q73 0 115 -58q37 -52 37 -128t-45 -127t-120 -51q-92 0 -143 69q-47 62 -47 156q0 147 91 246t237 99v-13q-99 -20 -153 -78q-47 -50 -81 -154zM103 196q0 -69 26 -121q33 -65 95 -65q85 0 85 155q0 57 -24 97q-29 49 -82 49q-63 0 -84 -29 q-16 -23 -16 -86z" />
<glyph unicode="7" horiz-adv-x="415" d="M294 485h-168q-55 0 -93 -69l-16 7l47 125h299v-11l-164 -537h-56z" />
<glyph unicode="8" horiz-adv-x="415" d="M237 305q58 -45 83 -76q39 -49 39 -103q0 -63 -49 -102q-45 -37 -110 -37t-108 35q-47 37 -47 101q0 81 108 147q-63 53 -74 66q-33 39 -33 93q0 58 49 93q45 32 105 32q58 0 98 -28q47 -31 47 -86q0 -45 -32 -81.5t-76 -53.5zM283 440q0 91 -92 91q-35 0 -58 -24.5 t-23 -60.5q0 -69 102 -129q71 43 71 123zM106 133q0 -48 25 -84q29 -39 76 -39q89 0 89 91q0 69 -123 154q-67 -55 -67 -122z" />
<glyph unicode="9" horiz-adv-x="415" d="M285 236q-44 -40 -109 -40q-73 0 -115 58q-37 52 -37 128t45 127t120 51q91 0 143 -69q47 -62 47 -156q0 -146 -90 -244q-93 -101 -238 -101v14q99 20 153 79q47 50 81 153zM304 351q0 69 -27 121q-33 65 -95 65q-84 0 -84 -155q0 -56 24 -96q29 -49 81 -49q62 0 83 28 q18 23 18 86z" />
<glyph unicode=":" d="M243 -143h-185v45h185v-45z" />
<glyph unicode=";" d="M302 -146h-184v45h184v-45z" />
<glyph unicode="&#x3c;" horiz-adv-x="0" d="M210 -161q-29 0 -29 28q0 27 29 27q28 0 28 -28q0 -27 -28 -27zM67 -161q-29 0 -29 28q0 27 29 27t29 -28q0 -27 -29 -27zM138 -283q-28 0 -28 28t28 28t28 -29q0 -27 -28 -27z" />
<glyph unicode="=" d="M288 -260l-25 -14l-68 118l-70 -115l-25 9l94 162z" />
<glyph unicode="&#x3e;" d="M170 -161q-30 0 -30 28q0 27 30 27q28 0 28 -28q0 -27 -28 -27zM170 -283q-30 0 -30 28t30 28q28 0 28 -29q0 -27 -28 -27z" />
<glyph unicode="?" d="M226 -161q-28 0 -28 28q0 27 28 27q11 0 20 -8.5t9 -19.5q0 -27 -29 -27zM133 -161q-29 0 -29 28q0 27 29 27q28 0 28 -28q0 -27 -28 -27zM226 -283q-28 0 -28 28t28 28q11 0 20 -9t9 -20q0 -27 -29 -27zM30 -161q-29 0 -29 28q0 27 29 27t29 -28q0 -27 -29 -27zM82 -283 q-30 0 -30 28t30 28q28 0 28 -29q0 -27 -28 -27z" />
<glyph unicode="@" horiz-adv-x="535" d="M419 377q0 58 -63 58h-227l-38 -1q-27 -37 -27 -55q0 -37 43 -46q40 -6 80 -11q43 -11 43 -51q0 -56 -107 -56q-12 0 -31 1t-25 1q-37 0 -60 -48q0 86 10 137q14 64 54 130q-33 6 -44.5 18.5t-11.5 47.5q0 63 39 81q0 -31 17 -36q9 -3 25 -3h237q112 0 112 -169v-576 q0 -31 -9 -59q-12 -38 -37 -38q-4 0 -8 1v30q0 113 13 322q15 216 15 322z" />
<glyph unicode="A" horiz-adv-x="273" d="M202 90q0 -25 -8 -53q-12 -38 -31 -38l-5 1v35q15 321 15 323q0 51 -35 66q-36 8 -71 16q-45 10 -59 44q-5 11 -5 23q0 39 32 76q0 -12 9 -33q6 -8 42 -10q43 -3 62 -11q32 -15 38 -55q0 -6 2 -50q14 -331 14 -334zM165 692q35 0 35 -35q0 -34 -35 -34q-36 0 -36 36 q0 33 36 33z" />
<glyph unicode="B" horiz-adv-x="511" d="M410 109h55l-35 -109h-430l35 109h356l-16 251q-1 24 -3 30q-3 13 -16 26q-20 19 -54 19h-208q-47 0 -62 9q-21 13 -21 56q0 63 38 83q0 -39 46 -39h199q59 0 90 -38q26 -32 26 -98v-299zM190 309q36 0 36 -35q0 -32 -33 -32q-36 0 -36 33q0 34 33 34z" />
<glyph unicode="C" horiz-adv-x="511" d="M40 309q36 0 36 -35q0 -32 -34 -32q-37 0 -37 33q0 34 35 34zM244 286l99 151q-39 14 -39 57q0 24 12.5 51.5t31.5 37.5q-1 -26 24 -39t49 -24q26 -18 26 -54q0 -57 -46 -80q0 24 -8 31t-33 14l-99 -154q156 -79 175 -139q6 -19 6 -57q0 -16 -14.5 -44t-27.5 -37h-400 q17 30 20 49v60h336q0 29 -57 76q-30 26 -108 79q-64 42 -71 54q-6 9 -6 20q0 9 4 26.5t4 26.5q0 39 -31 47q-30 3 -59 7q-31 8 -31 50q0 23 11 50t28 39q-1 -35 37 -38q48 -4 61 -27q6 -10 8 -46q1 -26 1 -68q-1 -63 -1 -52v-11q0 -11 98 -56z" />
<glyph unicode="D" horiz-adv-x="511" d="M397 91q0 -26 -8 -54q-10 -38 -30 -38l-5 1v30q0 3 12 405h-271q-43 0 -59 9q-24 13 -24 52q0 63 37 87q0 -24 9 -31.5t33 -7.5h305q20 0 34.5 -17t14.5 -37q0 -55 -59 -55q11 -342 11 -344zM201 309q35 0 35 -34q0 -33 -34 -33q-36 0 -36 32q0 35 35 35z" />
<glyph unicode="E" horiz-adv-x="0" d="M215 -161q-29 0 -29 28q0 27 29 27t29 -28q0 -27 -29 -27zM73 -161q-29 0 -29 28q0 27 29 27q28 0 28 -28q0 -27 -28 -27z" />
<glyph unicode="F" horiz-adv-x="548" d="M99 109q57 83 82 145q24 57 45 161q3 11 8 33q-62 0 -62 50q0 21 14.5 50.5t33.5 33.5q-1 -8 -1 -14q0 -22 22.5 -31.5t44.5 -17.5q23 -14 23 -46q0 -35 -33 -56q-2 21 -33 28q0 -12 -7 -59q-24 -159 -108 -277h232q16 0 56 121q38 116 38 191q0 19 -29 25q-51 10 -52 10 q-28 12 -28 45q0 22 14.5 47t33.5 34q-2 -10 -2 -15q0 -22 24 -29q35 -10 45 -19q24 -22 24 -83q0 -130 -65 -322q-12 -42 -43 -114h-323q-7 77 -9 88q-6 45 -20 85q-24 67 -24 114q0 93 53 162q-54 -2 -54 49q0 22 14 49q15 31 34 35q-1 -8 -1 -14q0 -22 22 -30t43 -15 q23 -14 23 -48q0 -16 -11 -34.5t-26 -23.5q-1 23 -36 29q-35 -58 -35 -123q0 -46 22.5 -113t50.5 -101zM323 309q36 0 36 -35q0 -32 -34 -32q-37 0 -37 33q0 34 35 34zM95 692q34 0 34 -35q0 -34 -32 -34q-37 0 -37 34q0 35 35 35z" />
<glyph unicode="G" horiz-adv-x="304" d="M248 0q-32 32 -64 138h-10l-60 -138h-114l29 109l124 29l25 27q9 10 9 24q0 27 10 79t10 78q0 46 -18 63q-13 12 -42 12q-5 0 -15 -1h-14q-61 0 -79 55q-2 7 -2 17q0 20 12.5 48.5t27.5 44.5q0 -22 7 -32q4 -7 59 -12t67.5 -28t12.5 -89v-254q0 -48 25 -170zM71 309 q35 0 35 -34q0 -33 -34 -33q-36 0 -36 32q0 35 35 35z" />
<glyph unicode="H" horiz-adv-x="511" d="M402 90q0 -23 -9 -54q-11 -38 -27 -38q-2 0 -9 2v30q0 3 9 405h-271q-85 0 -85 68q0 49 39 80q0 -24 9 -31.5t33 -7.5h305q20 0 34.5 -17t14.5 -37q0 -55 -59 -55q16 -342 16 -345zM28 176q0 98 45 132q1 -6 1 -11q0 -15 -5 -44.5t-5 -44.5q0 -21 6.5 -62.5t6.5 -61.5 q0 -29 -10 -53q-14 -32 -39 -32l-7 1q9 118 9 107q0 11 -1 34.5t-1 34.5zM221 294q35 0 35 -35q0 -33 -33 -33q-37 0 -37 34t35 34z" />
<glyph unicode="I" d="M141 -161q-29 0 -29 28q0 27 29 27t29 -28q0 -27 -29 -27z" />
<glyph unicode="J" horiz-adv-x="511" d="M397 109q18 50 18 121q0 207 -114 207q-41 0 -56 -58q-9 -43 -26 -128q-10 0 -10 48q0 36 5 83q2 13 11 55q8 35 8 52q0 31 -16 55q5 0 16 1t16 1q126 0 168 -122q24 -69 24 -226q0 -109 -37 -198h-370q1 9 1 12q0 46 -12.5 137.5t-12.5 137.5q0 93 47 143q-52 19 -52 61 q0 24 11 53q13 36 33 38q-1 -8 -1 -13q0 -17 6 -22q36 -19 71 -38q43 -26 43 -68q0 -19 -13 -54q-14 -39 -27 -45q1 12 1 21q0 18 -5 27q-17 12 -60 38q-25 -53 -25 -141q0 -36 8 -92q8 -64 19 -86h331zM329 309q35 0 35 -35q0 -32 -33 -32q-37 0 -37 33q0 34 35 34z" />
<glyph unicode="K" horiz-adv-x="511" d="M445 272q0 -88 -53 -174q-60 -98 -142 -98h-255l34 109h223q79 0 126 42.5t47 120.5q0 80 -55 124q-52 41 -156 41q-22 0 -62 -2t-56 -2q-42 0 -61 10q-24 13 -24 57q0 59 38 83q3 -24 12.5 -31.5t34.5 -7.5h151q95 0 150 -92q48 -79 48 -180zM221 309q35 0 35 -35 q0 -32 -33 -32q-37 0 -37 33q0 34 35 34z" />
<glyph unicode="L" horiz-adv-x="511" d="M60 544h318q54 0 57 -60q10 -198 10 -200q0 -37 -70 -101l-106 -86q-17 -14 -35 -59q-16 -38 -24 -38q-35 0 -35 22q0 17 17 48.5t31 42.5q57 39 114 77q82 60 82 95q0 1 -13 119q-2 12 -13.5 21.5t-24.5 9.5h-336q-32 0 -32 30q0 3 12 181q2 24 27.5 47.5t25.5 28.5 q0 13 -27 22t-27 27q0 20 23 20q20 0 42 -17t22 -37q-29 -45 -35 -93q-3 -20 -3 -100zM202 338q36 0 36 -34q0 -33 -33 -33q-37 0 -37 34q0 33 34 33z" />
<glyph unicode="M" horiz-adv-x="511" d="M126 0q22 37 21 109h276v81q0 106 -46 171q-53 74 -154 74q-74 0 -129.5 -61t-55.5 -136q0 -27 14 -80.5t14 -80.5q0 -28 -14 -51q-16 -27 -43 -27q-3 0 -8 1q20 69 20 98q0 22 -8 65.5t-8 64.5q0 87 41 139q4 6 57 61q-4 6 -53 21q-40 13 -40 45q0 21 12 50t28 39 q2 -11 9 -32q3 -6 47 -16q40 -9 46 -36q2 -8 -1 -46l4 -2q18 0 33 18t15 36q0 13 -8 39q32 7 59 7q119 0 164 -136q28 -83 28 -234q0 -81 -1 -92q-2 -44 -17 -89h-302zM231 288q36 0 36 -33t-34 -33q-37 0 -37 33t35 33z" />
<glyph unicode="N" horiz-adv-x="273" d="M50 309q36 0 36 -35q0 -32 -34 -32q-37 0 -37 33q0 34 35 34zM203 0h-208l20 109h158q15 258 15 260q0 45 -44 57q-41 6 -82 13q-45 14 -45 64q0 46 32 80q-1 -17 6 -28q4 -6 64 -11.5t71 -29.5q12 -27 12 -90v-254z" />
<glyph unicode="O" d="M55 567q-29 0 -29 28q0 27 29 27t29 -28q0 -27 -29 -27z" />
<glyph unicode="P" horiz-adv-x="511" d="M445 267v-158q-17 -51 -36 -109h-404l34 109h386l-6 152q-2 43 -10 67q-7 20 -31 58q-32 49 -101 49h-148l-38 -1q-27 -37 -27 -55q0 -37 43 -46q40 -6 80 -11q43 -11 43 -51q0 -56 -107 -56q-12 0 -31 1t-25 1q-37 0 -60 -48q0 175 64 267q-38 9 -47 17q-13 12 -13 49 q0 54 38 76q4 -22 13 -28t33 -6h187q43 0 71 -13q92 -45 92 -264zM323 309q36 0 36 -35q0 -32 -34 -32q-37 0 -37 33q0 34 35 34z" />
<glyph unicode="Q" horiz-adv-x="511" d="M447 288q0 8 -2 -16q-8 -88 -58 -124q-26 -19 -104 -38q-72 -17 -103 -47q-1 0 -61 -63q-7 0 -7 10q0 31 37 77q44 56 102 67q99 21 125 36q52 32 52 114q0 131 -151 131h-199q-37 0 -52 14.5t-15 52.5q0 57 38 81q0 -39 46 -39h187q165 0 165 -256zM25 -62 q0 45 -8 134.5t-8 134.5q0 63 26 110q14 24 21 24q4 0 4 -9q0 -18 -9.5 -52.5t-9.5 -53.5q0 -58 16 -173.5t16 -173.5q0 -43 -17 -102q-21 -77 -53 -74h-3q2 29 15 117q10 73 10 118zM221 309q35 0 35 -35q0 -32 -33 -32q-37 0 -37 33q0 34 35 34z" />
<glyph unicode="R" horiz-adv-x="521" d="M445 90q0 -25 -9 -53q-11 -38 -30 -38l-6 1v30q0 53 6 152.5t6 149.5q0 103 -100 103h-217q-44 0 -59 7q-24 11 -24 50q0 25 11.5 52.5t30.5 38.5q0 -22 7.5 -30.5t29.5 -8.5h221q65 0 96 -40q21 -27 23 -80q14 -330 14 -334zM206 309q36 0 36 -35q0 -32 -34 -32 q-37 0 -37 33q0 34 35 34z" />
<glyph unicode="S" horiz-adv-x="511" d="M47 438q-35 20 -35 54q0 24 9 50q11 31 28 41q0 -39 46 -39h187q163 0 163 -272q0 -88 -40 -171q-49 -101 -128 -101h-108q-85 0 -132 99q-37 78 -37 173q0 73 47 166zM20 272q0 -69 40.5 -116t108.5 -47h108q148 0 148 163t-148 163h-210q-47 -92 -47 -163zM221 309 q35 0 35 -35q0 -32 -33 -32q-37 0 -37 33q0 34 35 34z" />
<glyph unicode="T" horiz-adv-x="511" d="M449 90q0 -25 -8 -54q-12 -37 -30 -37l-6 1v18q0 60 7.5 181.5t7.5 181.5q0 33 -14.5 43.5t-46.5 10.5h-267q-38 -76 -38 -158q0 -33 43.5 -91.5t43.5 -91.5t-19 -62q-22 -32 -53 -32h-69q-1 8 -1 23q0 54 5 65q11 25 57 21q-39 67 -39 168q0 50 13 85q12 30 43 73 q-67 0 -67 65q0 24 9 48q11 28 29 35q0 -24 9 -31.5t33 -7.5h226q73 0 101 -36q12 -16 14 -39t3 -45q14 -331 14 -334zM238 309q36 0 36 -35q0 -32 -34 -32q-37 0 -37 33q0 34 35 34z" />
<glyph unicode="U" d="M218 -286q-30 0 -30 28q0 27 30 27q28 0 28 -28q0 -27 -28 -27zM148 -225q-29 0 -29 28q0 27 29 27q28 0 28 -28q0 -27 -28 -27zM78 -164q-28 0 -28 28q0 27 28 27q29 0 29 -28q0 -27 -29 -27z" />
<glyph unicode="V" horiz-adv-x="548" d="M99 109q73 107 99 188q11 47 36 141q-62 0 -62 50q0 23 14 54q15 35 34 40q-1 -8 -1 -14q0 -22 22.5 -31.5t44.5 -17.5q23 -15 23 -47q0 -43 -33 -65q-3 21 -33 28q-1 -12 -7 -52q-16 -88 -37 -144q-24 -64 -71 -130h232q17 0 56 116q38 112 38 186q0 19 -29 25 q-50 10 -52 11q-28 12 -28 47q0 23 14 50.5t34 37.5q-2 -9 -2 -15q0 -22 24 -29q35 -10 45 -19q24 -23 24 -83q0 -128 -65 -322l-18 -58q-11 -35 -25 -56h-323q-6 65 -9 87q-7 49 -20 86q-24 69 -24 114q0 90 53 153q-54 -3 -54 48q0 23 14 54q15 35 34 40q-1 -8 -1 -14 q0 -22 22 -30t43 -15q23 -14 23 -48q0 -17 -11 -39.5t-26 -28.5q0 23 -36 29q-35 -49 -35 -113q0 -47 22 -113t51 -101zM323 309q36 0 36 -35q0 -32 -34 -32q-37 0 -37 33q0 34 35 34zM448 692q35 0 35 -35q0 -34 -33 -34q-37 0 -37 35q0 34 35 34z" />
<glyph unicode="W" horiz-adv-x="273" d="M71 309q35 0 35 -34q0 -33 -34 -33q-36 0 -36 32q0 35 35 35zM202 91q0 -26 -8 -54q-11 -38 -31 -38l-5 1v35q15 321 15 323q0 51 -35 67q-36 7 -73 15q-44 10 -57 44q-4 9 -4 20q0 38 37 80q1 -11 9 -32q5 -7 56.5 -12.5t69.5 -35.5q15 -23 17 -80q9 -331 9 -333z" />
<glyph unicode="X" horiz-adv-x="548" d="M99 109q58 85 85 153q17 43 50 167q-62 3 -62 53q0 24 14 57q15 39 34 43q-1 -8 -1 -14q0 -22 22.5 -30.5t44.5 -15.5q23 -14 23 -49q0 -18 -9 -41q-10 -26 -24 -35q-4 21 -33 28q0 -9 -7 -46q-17 -89 -37 -142q-24 -62 -71 -128h232q17 0 56 111q38 108 38 181 q0 20 -27.5 27t-53.5 14q-28 13 -28 44q0 24 14 54q15 34 34 42q-2 -10 -2 -15q0 -21 34 -31q40 -11 49.5 -30.5t9.5 -67.5q0 -132 -65 -324q-12 -42 -43 -114h-323q-7 77 -9 88q-6 45 -20 85q-24 67 -24 114q0 93 53 143q-54 0 -54 52q0 24 14 57q15 39 34 43q-1 -8 -1 -14 q0 -23 22 -29.5t43 -13.5q23 -13 23 -48q0 -19 -11.5 -46t-25.5 -34q-1 23 -36 29q-35 -43 -35 -104q0 -46 22.5 -112.5t50.5 -100.5z" />
<glyph unicode="Y" horiz-adv-x="273" d="M38 354q35 0 35 -34q0 -33 -34 -33q-36 0 -36 33q0 34 35 34zM193 470q0 2 -4 -39q-2 -24 -32 -91q-32 -71 -45 -71h-1q40 74 40 115q0 35 -31 44l-62 10q-38 9 -48 44q-2 7 -2 14q0 48 41 89q0 -38 45 -43q60 -5 72 -16q27 -24 27 -56z" />
<glyph unicode="Z" horiz-adv-x="270" d="M202 386q0 -40 -27 -40q-8 0 -23.5 4t-23.5 4q-30 0 -30 -54q0 -24 13.5 -70t13.5 -70q0 -140 -21 -156q-14 12 -27 120q-11 91 -11 137q0 13 4.5 37.5t4.5 37.5q0 26 -19 35q-33 16 -34 17q-19 18 -19 64q0 57 37 57q5 0 34 -26q68 -9 89 -20q39 -21 39 -77zM-2 226 q28 0 28 -28q0 -29 -29 -29q-30 0 -30 28q0 29 31 29z" />
<glyph unicode="[" horiz-adv-x="511" d="M18 109l155 25v13q0 58 -31.5 118.5t-31.5 95.5q0 36 33 62q-33 0 -47 11.5t-14 43.5q0 27 7 58q9 41 26 47q0 -24 10 -30q48 -7 67 -18q31 -17 31 -57q0 -18 -8 -47q-9 -34 -20 -39q0 13 -12 25q-11 1 -33 4q-16 -13 -16 -50q0 -10 28.5 -71t28.5 -88q0 -14 -3 -39 t-3 -37q17 0 83 13t69 19q30 45 52 107q24 68 24 117q0 19 -28 24q-50 10 -52 11q-28 12 -28 46q0 26 12 62q15 41 33 49q0 -35 25 -45q42 -17 45 -20q25 -22 25 -87q0 -92 -61 -266q-12 -40 -40 -108l-345 -58q23 40 23 80q0 15 -4 29z" />
<glyph unicode="\" d="M300 -158q-29 0 -29 29q0 27 29 27t29 -29q0 -27 -29 -27zM300 -280q-29 0 -29 29q0 27 29 27t29 -28t-29 -28zM33 -102h186v-39h-69v-141h-39v141h-78v39z" />
<glyph unicode="]" d="M211 -140h-140v36h140v-36zM287 -160q-29 0 -29 28t29 28t29 -29q0 -27 -29 -27zM287 -282q-29 0 -29 28t29 28t29 -29q0 -27 -29 -27z" />
<glyph unicode="^" horiz-adv-x="526" d="M405 -206q0 -28 -9 -56q-13 -36 -37 -36q-4 0 -9 1v35l16 697h-281q-43 0 -58 8q-25 12 -25 50q0 66 37 90q0 -24 9 -31.5t34 -7.5h314q20 0 34.5 -17t14.5 -37q0 -55 -59 -55zM99 326h158v-34h-64q8 -44 8 -83q0 -61 -25 -61q-26 0 -26 58q0 54 13 86h-64v34z" />
<glyph unicode="_" d="M133 -249l-21 -14l-65 110l-73 -114l-19 16l91 153z" />
<glyph unicode="`" horiz-adv-x="250" d="M183 375l-72 -74l-77 79l73 72zM176 111l-72 -73l-76 77l72 73z" />
<glyph unicode="a" horiz-adv-x="511" d="M448 477l-3 -68q-29 11 -38 11q-30 0 -61 -58q-27 -53 -27 -88t62.5 -100t62.5 -105q0 -49 -47 -84q-8 36 -51 85l-213 244q-29 -33 -30 -35q-14 -19 -14 -42q0 -32 44.5 -89.5t44.5 -90.5q0 -1 -12 -57h-159v34q50 0 50 23q0 11 -27 56.5t-27 75.5t46 78q2 2 67 64 l-76 89q-33 39 -33 72q0 48 46 84q10 -37 53 -85l177 -205q25 69 66 134q-6 -1 -18 -1q-77 0 -77 70q0 62 50 94q-2 -14 -2 -20q0 -23 38 -27q67 -5 70 -6q38 -11 38 -53z" />
<glyph unicode="b" horiz-adv-x="511" d="M410 109h55l-35 -109h-430l35 109h356l-16 251q-1 24 -3 30q-3 13 -16 26q-20 19 -54 19h-208q-47 0 -62 9q-21 13 -21 56q0 63 38 83q0 -39 46 -39h199q59 0 90 -38q26 -32 26 -98v-299z" />
<glyph unicode="c" horiz-adv-x="511" d="M442 81q0 -16 -14.5 -44t-27.5 -37h-400q17 30 20 49v60h336q0 29 -57 76q-30 26 -108 79q-64 42 -71 54q-6 9 -6 20q0 9 4 26.5t4 26.5q0 39 -31 47q-30 3 -59 7q-31 8 -31 50q0 23 11 50t28 39q-1 -35 37 -38q46 -4 60 -27q9 -15 10 -80q-1 103 -1 -86v-11q0 -9 98 -56 l99 151q-39 15 -39 57q0 24 12.5 51.5t31.5 37.5q-1 -26 24 -39t49 -24q26 -18 26 -54q0 -57 -46 -80q0 24 -9 32q-6 5 -31 13l-100 -154q155 -77 175 -139q6 -19 6 -57z" />
<glyph unicode="d" horiz-adv-x="511" d="M397 91q0 -26 -8 -54q-10 -38 -30 -38l-5 1v30q0 3 12 405h-271q-43 0 -59 9q-24 13 -24 52q0 63 37 87q0 -24 9 -31.5t33 -7.5h305q20 0 34.5 -17t14.5 -37q0 -55 -59 -55q11 -342 11 -344z" />
<glyph unicode="e" d="M145 -104q28 0 28 -29q0 -27 -27 -27q-28 0 -28 28t27 28zM264 -104q29 0 29 -29q0 -27 -29 -27q-27 0 -27 28t27 28z" />
<glyph unicode="f" horiz-adv-x="548" d="M99 109q73 107 99 188q11 47 36 141q-62 4 -62 53q0 23 14 53q15 34 34 38q-1 -8 -1 -14q0 -22 22.5 -30.5t44.5 -15.5q23 -14 23 -48q0 -43 -33 -67q-2 21 -33 28q0 -11 -7 -52q-28 -161 -108 -274h232q17 0 56 116q38 111 38 186q0 19 -27.5 26.5t-53.5 14.5 q-28 12 -28 43q0 23 14 50.5t34 36.5q-2 -10 -2 -15q0 -21 34 -31q40 -11 49.5 -30.5t9.5 -67.5q0 -132 -65 -324q-12 -42 -43 -114h-323q-7 77 -9 88q-6 45 -20 85q-24 67 -24 114q0 90 53 153q-54 0 -54 51q0 23 14 53q15 34 34 38q-1 -8 -1 -14q0 -22 22 -29t43 -14 q23 -13 23 -47q0 -17 -11.5 -41.5t-25.5 -29.5q-1 23 -36 29q-35 -49 -35 -113q0 -46 22.5 -113t50.5 -101zM95 692q34 0 34 -35q0 -34 -32 -34q-37 0 -37 34q0 35 35 35z" />
<glyph unicode="g" horiz-adv-x="304" d="M248 0q-32 32 -64 138h-10l-60 -138h-114l29 109l129 29l18 24q10 15 11 27q0 1 12 77q8 48 8 78q0 47 -18 64q-13 13 -42 13q-5 0 -15 -1h-16q-59 0 -77 55q-2 7 -2 17q0 20 12.5 48.5t27.5 44.5q0 -22 7 -32q4 -7 59 -12t67.5 -28t12.5 -89v-254q0 -48 25 -170z" />
<glyph unicode="h" horiz-adv-x="511" d="M402 90q0 -23 -9 -53q-11 -39 -27 -39q-2 0 -9 2v30q0 3 9 405h-271q-85 0 -85 68q0 52 39 80q0 -24 9 -31.5t33 -7.5h305q20 0 34.5 -17t14.5 -37q0 -55 -59 -55q16 -342 16 -345zM28 176q0 98 45 132q1 -6 1 -11q0 -15 -5 -44.5t-5 -44.5q0 -21 6.5 -62.5t6.5 -61.5 q0 -29 -10 -53q-14 -32 -39 -32l-7 1q9 118 9 107q0 11 -1 34.5t-1 34.5z" />
<glyph unicode="i" d="M212 -158q-29 0 -29 29q0 27 29 27q28 0 28 -29q0 -27 -28 -27z" />
<glyph unicode="j" horiz-adv-x="511" d="M397 109q18 50 18 121q0 207 -114 207q-41 0 -56 -58q-9 -43 -26 -128q-10 0 -10 48q0 36 5 83q2 13 11 55q8 35 8 52q0 31 -16 55q5 0 16 1t16 1q126 0 168 -122q24 -69 24 -226q0 -109 -37 -198h-370q1 9 1 12q0 46 -12.5 137.5t-12.5 137.5q0 93 47 143q-52 19 -52 61 q0 24 11 53q13 36 33 38q-1 -8 -1 -13q0 -17 6 -22q36 -19 71 -38q43 -26 43 -68q0 -19 -13 -54q-14 -39 -27 -45q1 12 1 21q0 18 -5 27q-17 12 -60 38q-25 -53 -25 -141q0 -36 8 -92q8 -64 19 -86h331z" />
<glyph unicode="k" horiz-adv-x="511" d="M445 272q0 -88 -53 -174q-60 -98 -142 -98h-255l34 109h223q79 0 126 42.5t47 120.5q0 80 -55 124q-52 41 -156 41q-22 0 -62 -2t-56 -2q-42 0 -61 10q-24 13 -24 57q0 59 38 83q3 -24 12.5 -31.5t34.5 -7.5h151q95 0 150 -92q48 -79 48 -180z" />
<glyph unicode="l" horiz-adv-x="511" d="M60 544h318q54 0 57 -60q10 -198 10 -200q0 -37 -70 -101l-106 -86q-17 -14 -35 -59q-16 -38 -24 -38q-35 0 -35 22q0 17 17 48.5t31 42.5q57 39 114 77q82 60 82 95q0 1 -13 119q-2 12 -13.5 21.5t-24.5 9.5h-336q-32 0 -32 30q0 3 12 181q2 24 27.5 47.5t25.5 28.5 q0 13 -27 22t-27 27q0 20 23 20q20 0 42 -17t22 -37q-29 -45 -35 -93q-3 -20 -3 -100z" />
<glyph unicode="m" horiz-adv-x="511" d="M126 0q22 37 21 109h276v81q0 106 -46 171q-53 74 -154 74q-74 0 -129.5 -61t-55.5 -136q0 -27 14 -80.5t14 -80.5q0 -28 -14 -51q-16 -27 -43 -27q-3 0 -8 1q20 69 20 98q0 22 -8 65.5t-8 64.5q0 87 41 139q4 6 57 61q-4 6 -53 21q-40 13 -40 45q0 21 12 50t28 39 q2 -11 9 -32q3 -6 47 -16q40 -9 46 -36q2 -8 -1 -46l4 -2q18 0 33 18t15 36q0 13 -8 39q32 7 59 7q119 0 164 -136q28 -83 28 -234q0 -81 -1 -92q-2 -44 -17 -89h-302z" />
<glyph unicode="n" horiz-adv-x="273" d="M203 0h-208l20 109h158q15 258 15 260q0 45 -44 57q-41 6 -82 13q-45 14 -45 64q0 46 32 80q-1 -17 6 -28q4 -6 64 -11.5t71 -29.5q12 -27 12 -90v-254z" />
<glyph unicode="o" d="M38 621q28 0 28 -28q0 -27 -28 -27q-27 0 -27 28q0 27 27 27z" />
<glyph unicode="p" horiz-adv-x="511" d="M445 267v-158q-17 -51 -36 -109h-404l34 109h386l-6 152q-2 43 -10 67q-7 20 -31 58q-32 49 -101 49h-148l-38 -1q-27 -37 -27 -55q0 -37 43 -46q40 -6 80 -11q43 -11 43 -51q0 -56 -107 -56q-12 0 -31 1t-25 1q-37 0 -60 -48q0 86 10 137q14 63 54 129q-38 9 -47 17 q-13 12 -13 50q0 54 38 76q4 -22 13 -28t33 -6h187q43 0 71 -13q92 -45 92 -264z" />
<glyph unicode="q" horiz-adv-x="511" d="M447 288q0 8 -2 -16q-8 -88 -58 -124q-26 -19 -104 -38q-72 -17 -103 -47q-1 0 -61 -63q-7 0 -7 10q0 31 37 77q44 56 102 67q99 21 125 36q52 32 52 114q0 131 -151 131h-199q-37 0 -52 14.5t-15 52.5q0 57 38 81q0 -39 46 -39h187q165 0 165 -256zM25 -62 q0 45 -8 134.5t-8 134.5q0 63 26 110q14 24 21 24q4 0 4 -9q0 -18 -9.5 -52.5t-9.5 -53.5q0 -58 16 -173.5t16 -173.5q0 -43 -17 -102q-21 -77 -53 -74h-3q2 29 15 117q10 73 10 118z" />
<glyph unicode="r" horiz-adv-x="521" d="M445 90q0 -25 -9 -53q-11 -38 -30 -38l-6 1v30q0 53 6 153.5t6 150.5q0 101 -100 101h-217q-44 0 -59 7q-24 11 -24 50q0 25 11.5 52.5t30.5 38.5q0 -22 7.5 -30.5t29.5 -8.5h221q65 0 96 -40q21 -27 23 -80q14 -330 14 -334z" />
<glyph unicode="s" horiz-adv-x="511" d="M47 438q-35 20 -35 54q0 24 9 50q11 31 28 41q0 -39 46 -39h187q163 0 163 -272q0 -88 -40 -171q-49 -101 -128 -101h-108q-85 0 -132 99q-37 78 -37 173q0 73 47 166zM20 272q0 -69 40.5 -116t108.5 -47h108q148 0 148 163t-148 163h-210q-47 -92 -47 -163z" />
<glyph unicode="t" horiz-adv-x="511" d="M449 90q0 -25 -8 -54q-12 -37 -30 -37l-6 1v18q0 60 7.5 181.5t7.5 181.5q0 33 -14.5 43.5t-46.5 10.5h-267q-38 -76 -38 -158q0 -33 43.5 -91.5t43.5 -91.5t-19 -62q-22 -32 -53 -32h-69q-1 8 -1 23q0 54 5 65q11 25 57 21q-39 67 -39 168q0 50 13 85q12 30 43 73 q-67 0 -67 65q0 24 9 48q11 28 29 35q0 -24 9 -31.5t33 -7.5h226q73 0 101 -36q12 -16 14 -39t3 -45q14 -331 14 -334z" />
<glyph unicode="u" d="M282 -280q-30 0 -30 29q0 27 30 27q28 0 28 -28t-28 -28zM212 -219q-29 0 -29 29q0 27 29 27q28 0 28 -28t-28 -28zM143 -158q-29 0 -29 29q0 27 29 27q28 0 28 -29q0 -27 -28 -27z" />
<glyph unicode="v" horiz-adv-x="548" d="M448 692q35 0 35 -35q0 -34 -33 -34q-37 0 -37 35q0 34 35 34zM99 109q58 85 85 153q17 43 50 167q-62 3 -62 53q0 24 14 57q15 39 34 43q-1 -8 -1 -14q0 -22 22.5 -30.5t44.5 -15.5q23 -14 23 -49q0 -18 -9 -41q-10 -26 -24 -35q-4 21 -33 28q0 -9 -7 -46 q-17 -89 -37 -142q-24 -62 -71 -128h232q17 0 56 111q38 108 38 181q0 20 -27.5 27t-53.5 14q-28 13 -28 44q0 24 14 54q15 34 34 42q-2 -10 -2 -15q0 -21 34 -31q40 -11 49.5 -30.5t9.5 -67.5q0 -132 -65 -324q-12 -42 -43 -114h-323q-7 77 -9 88q-6 45 -20 85 q-24 67 -24 114q0 93 53 143q-54 0 -54 52q0 24 14 57q15 39 34 43q-1 -8 -1 -14q0 -23 22 -29.5t43 -13.5q23 -13 23 -48q0 -19 -11.5 -46t-25.5 -34q-1 23 -36 29q-35 -43 -35 -104q0 -46 22.5 -112.5t50.5 -100.5z" />
<glyph unicode="w" horiz-adv-x="273" d="M202 91q0 -26 -8 -54q-11 -38 -31 -38l-5 1v35q15 321 15 323q0 51 -35 67q-36 7 -73 15q-44 10 -57 44q-4 9 -4 20q0 38 37 80q1 -11 9 -32q5 -7 56.5 -12.5t69.5 -35.5q15 -23 17 -80q9 -331 9 -333z" />
<glyph unicode="x" horiz-adv-x="511" d="M83 435q-72 0 -72 65q0 59 38 83q0 -24 9 -31.5t33 -7.5h305q20 0 34.5 -17t14.5 -37q0 -55 -59 -55q16 -342 16 -345q0 -22 -9 -53q-12 -39 -28 -39l-6 2l-2 35l9 400h-266q-30 -46 -29 -79l5 -302q1 -55 -32 -55q-3 0 -8 1q-4 26 -4 55q0 3 6 301q1 30 45 79z" />
<glyph unicode="y" horiz-adv-x="273" d="M193 470q0 2 -4 -39q-2 -24 -32 -91q-32 -71 -45 -71h-1q40 74 40 115q0 35 -31 44l-62 10q-38 9 -48 44q-2 7 -2 14q0 48 41 89q0 -38 45 -43q60 -5 72 -16q27 -24 27 -56z" />
<glyph unicode="z" horiz-adv-x="273" d="M108 350q0 -34 24.5 -112.5t24.5 -117.5q0 -34 -15 -73q-19 -48 -47 -48l-6 1q-2 15 -2 30q0 17 6.5 50.5t6.5 51.5q0 31 -10.5 93t-10.5 94q0 76 30 122q-89 0 -89 62q0 47 40 82q0 -26 5 -33.5t47 -16.5q49 -10 71 -22q38 -19 38 -53q0 -50 -48 -84q4 8 4 16q0 7 -8 23 q-14 25 -48 25q-13 -40 -13 -90z" />
<glyph unicode="{" d="M-92 567q-30 0 -30 28q0 27 30 27q28 0 28 -28q0 -27 -28 -27z" />
<glyph unicode="|" d="M210 -158q-29 0 -29 29q0 27 29 27q28 0 28 -29q0 -27 -28 -27zM210 -280q-29 0 -29 29q0 27 29 27q28 0 28 -28t-28 -28zM-58 -102h186v-39h-68v-141h-39v141h-79v39z" />
<glyph unicode="}" d="M131 -140h-141v36h141v-36zM207 -160q-30 0 -30 28t30 28q28 0 28 -29q0 -27 -28 -27zM207 -282q-30 0 -30 28t30 28q28 0 28 -29q0 -27 -28 -27z" />
<glyph unicode="~" horiz-adv-x="480" d="M385 369l-2 -366h-373v280q13 21 34 65q-3 12 -23 42q-17 26 -17 45q0 22 11 45q13 28 32 30l29 -29h232q36 0 58 -40q19 -33 19 -72zM363 132v184q0 7 -20 26t-27 19h-234q-11 -21 -34 -63v-180h294q4 6 21 14z" />
<glyph horiz-adv-x="370" d="M305 506h-35v-675h-34v675h-64v-675h-35v358q-64 12 -100.5 60t-36.5 114q0 74 44 124q46 54 118 54h143v-35z" />
<glyph horiz-adv-x="355" d="M239 288q0 -26 -18.5 -44t-44.5 -18q-27 0 -45 17.5t-18 44.5t18 45t45 18t45 -18t18 -45z" />
<glyph horiz-adv-x="535" d="M419 377q0 58 -63 58h-227l-38 -1q-27 -37 -27 -55q0 -37 43 -46q40 -6 80 -11q43 -11 43 -51q0 -56 -107 -56q-12 0 -31 1t-25 1q-37 0 -60 -48q0 86 10 137q14 64 54 130q-33 6 -44.5 18.5t-11.5 47.5q0 63 39 81q0 -31 17 -36q9 -3 25 -3h237q112 0 112 -169v-576 q0 -31 -9 -59q-12 -38 -37 -38q-4 0 -8 1v30q0 113 13 322q15 216 15 322zM330 305q34 0 34 -35q0 -33 -32 -33q-37 0 -37 34t35 34z" />
<glyph unicode="&#xb6;" horiz-adv-x="290" d="M238 397h-26v-530h-27v530h-51v-530h-27v282q-52 8 -81 51q-26 38 -26 93q0 56 37.5 93.5t93.5 37.5h107v-27z" />
<glyph unicode="&#xb7;" horiz-adv-x="200" d="M66 137v72h72v-72h-72z" />
<glyph unicode="&#xb8;" horiz-adv-x="200" d="M82 128q-20 227 -20 273v114h78v-114q0 -69 -18 -273h-40zM65 0v72h73v-72h-73z" />
<glyph unicode="&#xb9;" horiz-adv-x="255" d="M50 334l-17 96v85h73v-85l-16 -96h-40zM166 334l-16 96v85h72v-85l-17 -96h-39z" />
<glyph unicode="&#xba;" horiz-adv-x="400" d="M36 -9l30 150h-59v53h71l25 127h-96v53h107l31 150h53l-32 -150h113l29 150h54l-32 -150h61v-53h-71l-26 -127h97v-53h-108l-29 -150h-55l31 150h-111l-29 -150h-54zM129 194h113l23 127h-109z" />
<glyph unicode="&#xbb;" horiz-adv-x="400" d="M180 -74v64q-74 7 -110 43t-44 110l64 11q11 -100 90 -112v202q-143 33 -143 146q0 124 143 143v29h37v-29q122 -15 137 -127l-65 -10q-12 73 -72 82v-181q149 -30 149 -151q0 -66 -41.5 -111t-107.5 -45v-64h-37zM180 479q-35 -4 -57.5 -27t-22.5 -58q0 -64 80 -88v173z M217 42q85 13 85 101q0 67 -85 91v-192z" />
<glyph unicode="&#xbc;" horiz-adv-x="640" d="M42 392q0 57 25 92q28 40 83 40q57 0 86 -41q26 -36 26 -95t-26 -95q-29 -41 -86 -41q-56 0 -84 44q-24 37 -24 96zM152 481q-55 0 -55 -96q0 -90 55 -90q54 0 54 95q0 91 -54 91zM152 -18l282 542h52l-281 -542h-53zM375 121q0 56 26 92q29 41 83 41q55 0 85 -42 q27 -37 27 -94q0 -58 -26 -95q-30 -41 -86 -41t-84 43q-25 38 -25 96zM486 210q-56 0 -56 -96q0 -89 56 -89q55 0 55 94q0 91 -55 91z" />
<glyph unicode="&#xbd;" horiz-adv-x="480" d="M342 61q-61 -70 -148 -70q-67 0 -115.5 43t-48.5 109q0 97 124 153q-58 62 -58 114q0 50 38 82t89 32q49 0 84.5 -30.5t35.5 -78.5q0 -76 -97 -126l92 -119q15 28 25 72l66 -14q-16 -64 -46 -110q33 -45 80 -80l-42 -50q-35 24 -79 73zM214 330q65 38 65 83q0 25 -17 42 t-42 17q-24 0 -41.5 -16.5t-17.5 -40.5q0 -22 19 -46q0 -1 34 -39zM302 110l-116 144q-88 -52 -88 -108q0 -39 28.5 -69.5t67.5 -30.5q30 0 61 19t47 45z" />
<glyph unicode="&#xbe;" horiz-adv-x="138" d="M47 334l-15 96v85h72v-85l-18 -96h-39z" />
<glyph unicode="&#xbf;" horiz-adv-x="240" d="M169 -151q-125 161 -125 337q0 172 125 338h45q-55 -92 -78 -161q-27 -82 -27 -177q0 -171 105 -337h-45z" />
<glyph unicode="&#xc0;" horiz-adv-x="240" d="M72 -151h-46q105 165 105 337q0 97 -27 177q-22 63 -78 161h46q125 -167 125 -338t-125 -337z" />
<glyph unicode="&#xc1;" horiz-adv-x="280" d="M22 421l16 49q54 -17 81 -33l-6 87h50q0 -36 -9 -87q34 18 84 33l17 -49q-43 -14 -89 -20q20 -15 61 -67l-41 -28q-22 27 -48 74q-13 -26 -47 -74l-41 28l59 67q-35 6 -87 20z" />
<glyph unicode="&#xc2;" horiz-adv-x="421" d="M181 83v142h-141v59h141v140h61v-140h138v-59h-138v-142h-61z" />
<glyph unicode="&#xc3;" horiz-adv-x="200" d="M64 0v72h72v-72q0 -72 -58 -102l-18 27q35 13 40 75h-36z" />
<glyph unicode="&#xc4;" horiz-adv-x="240" d="M22 154v64h196v-64h-196z" />
<glyph unicode="&#xc5;" horiz-adv-x="200" d="M66 0v72h72v-72h-72z" />
<glyph unicode="&#xc6;" horiz-adv-x="200" d="M0 -9l150 533h50l-149 -533h-51z" />
<glyph unicode="&#xc7;" horiz-adv-x="200" d="M66 302v72h72v-72h-72zM66 0v72h72v-72h-72z" />
<glyph unicode="&#xc8;" horiz-adv-x="200" d="M64 302v72h72v-72h-72zM64 0v72h72v-72q0 -72 -58 -102l-18 27q35 13 40 75h-36z" />
<glyph unicode="&#xc9;" horiz-adv-x="421" d="M39 226v58l342 144v-62l-271 -112l271 -111v-64z" />
<glyph unicode="&#xca;" horiz-adv-x="421" d="M380 302h-340v60h340v-60zM380 146h-340v60h340v-60z" />
<glyph unicode="&#xcb;" horiz-adv-x="421" d="M381 226l-342 -147v64l271 111l-271 112v62l342 -144v-58z" />
<glyph unicode="&#xcc;" horiz-adv-x="400" d="M166 126v20q0 58 34 101q32 31 65 64t33 68q0 40 -29 66.5t-70 26.5q-86 0 -102 -104l-65 7q20 149 166 149q69 0 115 -35q51 -38 51 -105q0 -46 -34 -84q-32 -33 -64 -67q-36 -46 -40 -107h-60zM162 0v72h72v-72h-72z" />
<glyph unicode="&#xcd;" horiz-adv-x="730" d="M408 58q-49 -60 -108 -60q-60 0 -96 51q-31 45 -31 108q0 80 51 149q55 76 132 76q64 0 106 -65l12 53h62q-20 -72 -39 -144q-22 -89 -22 -145q0 -23 25 -23q56 0 99 71q37 63 37 123q0 98 -78 162q-72 60 -173 60q-130 0 -212.5 -86.5t-82.5 -217.5q0 -134 87 -204 q80 -65 217 -65q173 0 248 106h63q-33 -78 -131 -121q-84 -37 -180 -37q-157 0 -252 78q-103 84 -103 238q0 155 97 258t251 103q125 0 210 -75q90 -78 90 -201q0 -89 -60 -168q-64 -84 -150 -84q-66 0 -69 60zM238 153q0 -40 17 -68q20 -34 58 -34q57 0 95 62q34 54 34 115 q0 41 -20 69q-23 32 -62 32q-55 0 -91 -63q-31 -53 -31 -113z" />
<glyph unicode="&#xce;" horiz-adv-x="200" d="M49 -143v658h140v-52h-77v-553h77v-53h-140z" />
<glyph unicode="&#xcf;" horiz-adv-x="200" d="M150 -9l-150 533h51l149 -533h-50z" />
<glyph unicode="&#xd0;" horiz-adv-x="200" d="M154 -143h-140v53h76v553h-76v52h140v-658z" />
<glyph unicode="&#xd1;" horiz-adv-x="338" d="M84 242h-66l125 282h51l125 -282h-64l-86 211z" />
<glyph unicode="&#xd2;" horiz-adv-x="400" d="M-10 -143v45h419v-45h-419z" />
<glyph unicode="&#xd3;" horiz-adv-x="240" d="M163 420h-51l-82 98h86z" />
<glyph unicode="&#xd4;" horiz-adv-x="242" d="M20 215q54 0 66 52q4 16 4 95q0 83 19 117q26 47 101 45h13v-54q-74 0 -74 -73q0 -13 1.5 -37.5t1.5 -37.5q0 -96 -74 -136q51 -19 64 -72q6 -24 6 -101q0 -57 10 -77q15 -33 65 -33v-54h-18q-90 0 -108 80q-4 75 -8 149q-7 80 -69 80v57z" />
<glyph unicode="&#xd5;" horiz-adv-x="187" d="M66 -151v675h56v-675h-56z" />
<glyph unicode="&#xd6;" horiz-adv-x="242" d="M220 215v-57q-71 0 -71 -100q0 -12 1 -33t1 -30q0 -76 -28 -109q-32 -37 -106 -37v54q58 0 70 43q4 13 4 91q0 57 11 88q16 44 60 61q-70 30 -70 135v33q1 21 1 31q0 85 -76 85v54h19q83 0 103 -65q8 -25 8 -134q0 -52 11 -75q16 -35 62 -35z" />
<glyph unicode="&#xd7;" horiz-adv-x="421" d="M30 196v72q36 42 98 42q32 0 89.5 -24t81.5 -24q46 0 91 49v-74q-39 -40 -97 -40q-30 0 -85.5 23t-85.5 23q-42 0 -92 -47z" />
<glyph unicode="&#xd8;" horiz-adv-x="445" d="M400 3h-393v444h393v-444zM366 45l-2 364h-319v-364h321z" />
<glyph unicode="&#xd9;" horiz-adv-x="546" d="M486 3h-439v453h439v-453zM452 38l2 375h-376v-375h374z" />
<glyph unicode="&#xda;" horiz-adv-x="0" d="M-242 -176l15 43q27 -9 69 -30l-6 75h45q0 -34 -7 -75q39 19 72 30l15 -43q-44 -14 -76 -18q25 -25 51 -60l-35 -23q-21 26 -44 65q-20 -43 -38 -65l-37 23q23 31 52 60q-39 7 -76 18z" />
<glyph unicode="&#x25fc;" horiz-adv-x="585" d="M0 585h585v-585h-585v585z" />
<glyph horiz-adv-x="400" />
<glyph horiz-adv-x="400" />
<glyph horiz-adv-x="496" d="M386 -1q-8 0 -21 20q-2 2 -15 27q-12 22 -129 126.5t-129 104.5q-7 0 -13 -16.5t-6 -25.5q0 -16 48 -75t48 -94q0 -69 -130 -69q-27 0 -27 23q12 13 33 41q-3 8 -24 49q-16 30 -16 51q0 68 76 132q-78 98 -78 130q0 29 14 53q16 28 42 28q3 -2 31 -50q25 -42 160 -157 q42 33 42 59q0 9 -16 27t-16 37q0 28 12 53q14 30 37 38q9 -3 55 -51t54 -61q0 -101 -43 -101q-12 0 -52 33q-16 0 -31 -18t-15 -34q17 -22 61 -64.5t61 -68.5q27 -40 27 -85q0 -62 -40 -62zM245 14q-30 0 -30 28t30 28q28 0 28 -29q0 -27 -28 -27z" />
<glyph horiz-adv-x="400" d="M202 258q33 0 33 -35q0 -30 -34 -30q-32 0 -32 31q0 13 10 23.5t23 10.5z" />
<glyph horiz-adv-x="249" d="M70 350v-30h-41v306h-34l75 30l-1 -139q16 18 22 22q10 6 30 6q91 0 91 -113q0 -112 -91 -112q-29 0 -51 30zM70 387q0 -54 51 -54q48 0 48 99q0 45 -5 63q-10 36 -43 36q-51 0 -51 -59v-85z" />
<glyph horiz-adv-x="400" />
<glyph horiz-adv-x="519" d="M213 51l134 78v342q0 45 -26 51q58 0 129 27q-15 -18 -29 -35q-10 -16 -10 -45v-365q0 -58 51 -53q-7 -16 -29.5 -33.5t-38.5 -17.5q-47 0 -47 107l-185 -107l-162 104q50 16 99 76.5t49 111.5q0 68 -41.5 125.5t-106.5 73.5q10 58 71 58q44 0 86 -77q38 -68 38 -118 q0 -134 -112 -216z" />
<glyph horiz-adv-x="570" d="M0 57l433 227l-433 227v40l505 -267l-505 -268v41z" />
<glyph horiz-adv-x="400" />
<glyph horiz-adv-x="400" />
<glyph d="M-180 621v170h39v-73q39 12 75 12q42 0 42 -24q0 -25 -42 -25q-20 0 -75 13v-73h-39z" />
<glyph horiz-adv-x="526" d="M405 -206q0 -28 -9 -56q-13 -36 -37 -36q-4 0 -9 1v35l16 697h-281q-43 0 -58 8q-25 12 -25 50q0 66 37 90q0 -24 9 -31.5t34 -7.5h314q20 0 34.5 -17t14.5 -37q0 -55 -59 -55zM183 331q35 0 35 -35q0 -33 -33 -33q-37 0 -37 34t35 34z" />
<glyph horiz-adv-x="526" d="M405 -206q0 -28 -9 -56q-13 -36 -37 -36q-4 0 -9 1v35l16 697h-281q-43 0 -58 8q-25 12 -25 50q0 66 37 90q0 -24 9 -31.5t34 -7.5h314q20 0 34.5 -17t14.5 -37q0 -55 -59 -55zM183 331q35 0 35 -35q0 -33 -33 -33q-37 0 -37 34t35 34z" />
<glyph horiz-adv-x="519" d="M490 188q0 -65 -94 -120q-22 -13 -152 -68l-244 104q50 17 99 77t49 111q0 69 -41.5 126t-106.5 73q0 25 24 42q21 16 47 16q60 -29 93 -91q30 -57 30 -127q20 -8 60 -8q143 0 143 96q0 40 -40 60q-32 16 -76 16q-22 0 -116 -25q16 12 76 44q64 35 72 35q59 0 102 -18 q58 -24 58 -75q0 -36 -30 -75q-13 -18 -57 -61q104 -76 104 -132zM191 316q0 -47 -35 -100q-30 -46 -73 -78l212 -87q105 31 105 100q0 152 -209 165z" />
<glyph d="M-140 623q-21 54 -79 79q59 27 79 79q22 -53 79 -79q-59 -26 -79 -79z" />
<glyph d="M-224 791l25 -13l-95 -163l-24 14z" />
<glyph horiz-adv-x="497" d="M138 -205q0 -26 -8 -54q-11 -39 -31 -39l-5 1v35l13 539q1 45 25 103q0 9 -10 27q-8 15 -41 20q-43 7 -53 12q-26 13 -26 50q0 24 9 51q11 31 27 43q1 -12 8 -32q4 -6 40.5 -9t54.5 -15q29 -19 29 -65q0 -27 -12 -54.5t-22 -52t-10 -72.5q0 -3 1 -73q30 75 78 130 q36 40 112 101q-30 16 -30 52q0 23 13 48t32 35q0 -21 2.5 -27.5t28.5 -13.5q31 -9 45 -19q23 -17 23 -49q0 -60 -46 -81q0 45 -42 45q-80 -65 -106 -92q-44 -47 -78 -117q-30 -63 -30 -81q9 -344 9 -346z" />
<glyph horiz-adv-x="181" d="M46 351q43 0 43 -42q0 -41 -41 -41q-46 0 -46 41q0 42 44 42zM1 45q0 38 45 38q37 0 49 -25q8 -17 8 -58q0 -30 -25 -80q-27 -56 -52 -56q-7 0 -7 7l26 38q15 24 15 43q0 36 -12 48q-47 0 -47 45z" />
<glyph horiz-adv-x="1088" />
<glyph horiz-adv-x="526" d="M405 -206q0 -28 -9 -56q-13 -36 -37 -36q-4 0 -9 1v35l16 697h-281q-43 0 -58 8q-25 12 -25 50q0 66 37 90q0 -24 9 -31.5t34 -7.5h314q20 0 34.5 -17t14.5 -37q0 -55 -59 -55z" />
<glyph />
<glyph horiz-adv-x="1088" />
<glyph horiz-adv-x="1088" />
</font>
</defs>
</svg>
